<?xml version="1.0" encoding="UTF-8"?>
<svg width="1440" height="900" viewBox="0 0 1440 900" fill="none" xmlns="http://www.w3.org/2000/svg" preserveAspectRatio="xMidYMid slice">
  <defs>
    <linearGradient id="g1" x1="0" x2="1" y1="0" y2="1">
      <stop offset="0%" stop-color="#00C2FF" stop-opacity="0.9" />
      <stop offset="50%" stop-color="#6DD3B3" stop-opacity="0.85" />
      <stop offset="100%" stop-color="#7B61FF" stop-opacity="0.8" />
    </linearGradient>
    <filter id="f1" x="-20%" y="-20%" width="140%" height="140%">
      <feGaussianBlur stdDeviation="30" result="b" />
      <feBlend in="SourceGraphic" in2="b" mode="normal" />
    </filter>
  </defs>

  <g filter="url(#f1)">
    <path d="M140 120C180 40 320 -10 480 10C640 30 780 120 920 170C1060 220 1190 200 1310 250C1430 300 1480 420 1420 540C1360 660 1180 740 990 760C800 780 560 740 380 700C200 660 100 560 80 420C60 280 100 200 140 120Z" fill="url(#g1)" opacity="0.95"/>
  </g>

  <!-- subtle shapes -->
  <g opacity="0.12">
    <ellipse cx="1150" cy="150" rx="220" ry="90" fill="#FFFFFF" />
    <ellipse cx="200" cy="700" rx="180" ry="70" fill="#FFFFFF" />
  </g>
</svg>
